<?xml version="1.0" encoding="utf-8"?>
<!-- Nick鐘修改：調整內容位置使其在 viewBox 中居中對齊 -->
<svg width="100px" height="100px" viewBox="0 0 100 100" xmlns="http://www.w3.org/2000/svg">
  <!-- 整體內容向下和向右移動，使其在 viewBox 中居中，並微調垂直位置 -->
  <g transform="translate(17, 25)">
    <!-- 两个人的图形 (来自 friend-svgrepo-com.svg) -->
    <g stroke-width="3" stroke="#000000" fill="none">
      <!-- 左边的人 -->
      <circle cx="22.83" cy="22.57" r="7.51"/>
      <path d="M38,49.94a15.2,15.2,0,0,0-15.21-15.2h0a15.2,15.2,0,0,0-15.2,15.2Z"/>

      <!-- 右边的人 -->
      <circle cx="44.13" cy="27.22" r="6.05"/>
      <path d="M42.4,49.94h14A12.24,12.24,0,0,0,44.13,37.7h0a12.21,12.21,0,0,0-5.75,1.43"/>
    </g>

    <!-- 加号 (来自 plus-sign-svgrepo-com__1_.svg，缩放到右上角) -->
    <g transform="translate(46, 5) scale(0.35)">
      <path style="fill:#000000;" d="M0.001,24.233c0,3.584,2.916,6.5,6.5,6.5h11.234v11.234c0,3.584,2.916,6.5,6.5,6.5
        s6.5-2.916,6.5-6.5V30.733h11.232c3.584,0,6.5-2.916,6.5-6.5s-2.916-6.5-6.5-6.5H30.736V6.5c0-3.584-2.916-6.5-6.5-6.5
        s-6.5,2.916-6.5,6.5v11.233H6.501C2.917,17.733,0.001,20.649,0.001,24.233z M18.236,20.733c1.379,0,2.5-1.122,2.5-2.5V6.5
        c0-1.93,1.57-3.5,3.5-3.5s3.5,1.57,3.5,3.5v11.733c0,1.378,1.121,2.5,2.5,2.5h11.732c1.93,0,3.5,1.57,3.5,3.5s-1.57,3.5-3.5,3.5
        H30.236c-1.379,0-2.5,1.122-2.5,2.5v11.734c0,1.93-1.57,3.5-3.5,3.5s-3.5-1.57-3.5-3.5V30.233c0-1.378-1.121-2.5-2.5-2.5H6.501
        c-1.93,0-3.5-1.57-3.5-3.5s1.57-3.5,3.5-3.5H18.236z"/>
    </g>
  </g>
</svg>
