<?xml version="1.0" encoding="UTF-8"?>
<svg width="512" height="512" viewBox="0 0 512 512" xmlns="http://www.w3.org/2000/svg">
  <style>
    .stroke-style { 
      fill: none; 
      stroke: #000000; 
      stroke-width: 14; 
      stroke-linecap: round; 
      stroke-linejoin: round;
    }
  </style>
  
  <!-- Speech Bubbles -->
  <g class="stroke-style">
    <!-- Left speech bubble with tail -->
    <path d="M 60 40 
             L 260 40 
             Q 290 40 290 70 
             L 290 150 
             Q 290 180 260 180 
             L 200 180 
             L 160 220 
             Q 155 225 148 225 
             Q 138 225 138 215 
             L 138 180 
             L 60 180 
             Q 30 180 30 150 
             L 30 70 
             Q 30 40 60 40 Z"/>
    
    <!-- Horizontal lines inside left bubble -->
    <line x1="96" y1="88" x2="224" y2="88" stroke-width="10"/>
    <line x1="96" y1="132" x2="224" y2="132" stroke-width="10"/>
    
    <!-- Right speech bubble with tail -->
    <path d="M 300 96 
             L 450 96 
             Q 480 96 480 126 
             L 480 186 
             Q 480 216 450 216 
             L 390 216 
             L 350 248 
             Q 345 252 338 252 
             Q 328 252 328 242 
             L 328 216 
             L 300 216 
             Q 290 216 290 206 
             L 290 106 
             Q 290 96 300 96 Z"/>
  </g>
  
  <!-- People Icons Group -->
  <g class="stroke-style">
    <!-- Left person -->
    <circle cx="118" cy="310" r="30"/>
    <path d="M 60 370 
             Q 60 340 90 340 
             L 146 340 
             Q 176 340 176 370 
             L 176 420 
             Q 176 430 166 430 
             L 70 430 
             Q 60 430 60 420 Z"/>
    
    <!-- Center person (larger) -->
    <circle cx="256" cy="298" r="38"/>
    <path d="M 186 378 
             Q 186 342 222 342 
             L 290 342 
             Q 326 342 326 378 
             L 326 460 
             Q 326 472 314 472 
             L 198 472 
             Q 186 472 186 460 Z"/>
    
    <!-- Right person -->
    <circle cx="394" cy="310" r="30"/>
    <path d="M 336 370 
             Q 336 340 366 340 
             L 422 340 
             Q 452 340 452 370 
             L 452 420 
             Q 452 430 442 430 
             L 346 430 
             Q 336 430 336 420 Z"/>
  </g>
</svg>